<?xml version="1.0" encoding="utf-8"?>
<!-- Generator: Adobe Illustrator 16.0.0, SVG Export Plug-In . SVG Version: 6.00 Build 0)  -->
<!DOCTYPE svg PUBLIC "-//W3C//DTD SVG 1.1//EN" "http://www.w3.org/Graphics/SVG/1.1/DTD/svg11.dtd">
<svg version="1.1" id="Layer_1" xmlns="http://www.w3.org/2000/svg" xmlns:xlink="http://www.w3.org/1999/xlink" x="0px" y="0px"
	 width="50px" height="50px" viewBox="0 0 50 50" enable-background="new 0 0 50 50" xml:space="preserve">
<g>
	<g>
		<path fill="#68358F" d="M16.822,36.443c0,0-0.192,2.486-3.615,4.377c-0.667,0.589-1.636,1.486-2.086,3.465
			c0.065,0.915-0.211,4.69,4.65,5.698c1.362,0.076,3.339,0.276,4.948-2.618c0.109-0.313,1.521-4.598,3.751-5.148
			C23.385,42.265,18.258,42.64,16.822,36.443z"/>
	</g>
	<g>
		<path fill="#ED407D" d="M14.815,30.813c0,0,2.263,1.762,1.906,6.24c0.143,1.013,0.39,2.512,2.002,4.194
			c0.919,0.52,4.364,3.176,8.408-0.847c0.937-1.259,2.382-3.026,0.625-6.405c-0.23-0.302-3.444-4.369-2.56-6.857
			C24.555,28.208,21.667,33.362,14.815,30.813z"/>
	</g>
	<g>
		<path fill="#68358F" d="M19.772,10.864c0,0-0.553,3.875-6.102,6.493c-1.104,0.858-2.712,2.166-3.614,5.219
			c0.009,1.44-0.801,7.326,6.712,9.392c2.124,0.255,5.203,0.768,8.013-3.606c0.202-0.478,2.842-7.047,6.392-7.687
			C29.467,20.64,21.399,20.713,19.772,10.864z"/>
	</g>
	<g>
		<circle fill="#ED407D" cx="29.41" cy="10.537" r="10.554"/>
	</g>
</g>
</svg>
