<?xml version="1.0" encoding="utf-8"?>
<!-- Generator: Adobe Illustrator 16.0.0, SVG Export Plug-In . SVG Version: 6.00 Build 0)  -->
<!DOCTYPE svg PUBLIC "-//W3C//DTD SVG 1.1//EN" "http://www.w3.org/Graphics/SVG/1.1/DTD/svg11.dtd">
<svg version="1.1" id="Layer_1" xmlns="http://www.w3.org/2000/svg" xmlns:xlink="http://www.w3.org/1999/xlink" x="0px" y="0px"
	 width="50px" height="50px" viewBox="0 0 50 50" enable-background="new 0 0 50 50" xml:space="preserve">
<g>
	<path fill="#EF3F7D" d="M33.033,22.509c1.276,0,2.315,1.037,2.315,2.315c0,1.28-1.039,2.315-2.315,2.315
		c-1.28,0-2.315-1.035-2.315-2.315C30.718,23.546,31.753,22.509,33.033,22.509"/>
	<path fill="#EF3F7D" d="M44.085,24.113l-3.584-0.43c-0.367-1.367-0.902-2.66-1.593-3.858l2.228-2.833
		c0.341-0.435,0.302-1.108-0.091-1.501l-3.692-3.695c-0.392-0.391-1.066-0.432-1.502-0.092l-2.839,2.232
		c-1.194-0.69-2.484-1.227-3.85-1.59L28.73,8.762c-0.066-0.548-0.568-0.997-1.122-0.997h-5.226c-0.553,0-1.059,0.448-1.123,0.997
		l-0.429,3.584c-1.365,0.364-2.659,0.902-3.853,1.592l-2.837-2.228c-0.434-0.342-1.108-0.301-1.499,0.088l-3.694,3.698
		c-0.391,0.389-0.431,1.063-0.088,1.5l2.228,2.834c-0.691,1.196-1.227,2.488-1.592,3.856l-3.582,0.429
		c-0.548,0.064-0.999,0.57-0.999,1.122v5.227c0,0.554,0.449,1.056,0.999,1.124l3.583,0.43l31.001-0.005l3.585-0.43
		c0.546-0.066,0.998-0.569,0.998-1.124v-5.224C45.082,24.684,44.633,24.18,44.085,24.113 M21.597,25.429
		c0,0.127-0.102,0.242-0.229,0.257l-0.827,0.1c-0.083,0.314-0.207,0.611-0.368,0.888l0.515,0.654
		c0.078,0.101,0.069,0.256-0.021,0.346l-0.852,0.851c-0.09,0.093-0.246,0.102-0.345,0.024l-0.654-0.514
		c-0.274,0.159-0.574,0.281-0.888,0.367l-0.1,0.826c-0.014,0.128-0.131,0.229-0.259,0.229h-1.205c-0.126,0-0.244-0.1-0.258-0.229
		l-0.1-0.828c-0.315-0.086-0.612-0.207-0.889-0.368l-0.654,0.514c-0.101,0.08-0.257,0.07-0.346-0.021l-0.851-0.851
		c-0.09-0.09-0.099-0.243-0.021-0.346l0.514-0.654c-0.159-0.274-0.282-0.572-0.368-0.886l-0.828-0.1
		c-0.127-0.016-0.23-0.132-0.23-0.259v-1.205c0-0.128,0.103-0.243,0.23-0.26l0.826-0.099c0.085-0.315,0.209-0.614,0.368-0.891
		l-0.514-0.654c-0.079-0.101-0.069-0.257,0.021-0.345l0.852-0.853c0.09-0.09,0.246-0.1,0.345-0.021l0.654,0.515
		c0.274-0.159,0.574-0.283,0.888-0.368l0.1-0.828c0.015-0.127,0.132-0.229,0.259-0.229h1.205c0.127,0,0.245,0.102,0.259,0.229
		l0.1,0.828c0.313,0.083,0.612,0.207,0.887,0.367l0.654-0.515c0.101-0.078,0.255-0.069,0.345,0.021l0.851,0.852
		c0.09,0.09,0.1,0.245,0.021,0.345l-0.514,0.652c0.161,0.276,0.284,0.574,0.368,0.889l0.828,0.1
		c0.127,0.017,0.229,0.132,0.229,0.257v1.211h0.003V25.429z M37.665,25.429c0,0.127-0.104,0.242-0.232,0.257l-0.827,0.1
		c-0.084,0.314-0.206,0.611-0.368,0.888l0.513,0.654c0.078,0.101,0.068,0.256-0.021,0.346l-0.853,0.851
		c-0.089,0.093-0.246,0.102-0.344,0.024l-0.655-0.514c-0.273,0.159-0.573,0.281-0.888,0.367l-0.1,0.826
		c-0.014,0.128-0.133,0.229-0.258,0.229h-1.205c-0.127,0-0.244-0.1-0.26-0.229l-0.1-0.828c-0.315-0.086-0.612-0.207-0.888-0.368
		l-0.653,0.514c-0.102,0.08-0.259,0.07-0.346-0.021l-0.853-0.851c-0.09-0.09-0.099-0.243-0.021-0.346l0.514-0.654
		c-0.16-0.274-0.281-0.572-0.369-0.886l-0.826-0.1c-0.127-0.016-0.23-0.132-0.23-0.259v-1.205c0-0.128,0.103-0.243,0.23-0.26
		l0.825-0.099c0.086-0.315,0.21-0.614,0.368-0.891l-0.512-0.654c-0.081-0.101-0.069-0.257,0.021-0.345l0.853-0.853
		c0.09-0.09,0.244-0.1,0.346-0.021l0.653,0.515c0.274-0.159,0.572-0.283,0.888-0.368l0.1-0.828c0.015-0.127,0.133-0.229,0.258-0.229
		h1.204c0.128,0,0.244,0.102,0.261,0.229l0.1,0.828c0.311,0.083,0.612,0.207,0.887,0.367l0.654-0.515
		c0.1-0.078,0.255-0.069,0.345,0.021l0.853,0.852c0.089,0.09,0.098,0.245,0.021,0.345l-0.513,0.652
		c0.161,0.276,0.282,0.574,0.367,0.889l0.828,0.1c0.127,0.017,0.231,0.132,0.231,0.257v1.211h0.002V25.429z"/>
	<path fill="#EF3F7D" d="M16.967,22.509c1.278,0,2.315,1.037,2.315,2.315c0,1.28-1.037,2.315-2.315,2.315
		c-1.279,0-2.315-1.035-2.315-2.315C14.651,23.546,15.688,22.509,16.967,22.509"/>
	<path fill="#682F8E" d="M9.81,11.403L3.864,6.274c0.621-0.835,0.559-2.017-0.199-2.776c-0.833-0.832-2.184-0.832-3.019,0
		c-0.832,0.833-0.832,2.185,0,3.018c0.759,0.758,1.941,0.819,2.776,0.198l5.129,5.948L9.81,11.403z"/>
	<path fill="#682F8E" d="M49.354,3.497c-0.836-0.833-2.184-0.833-3.018,0c-0.758,0.758-0.817,1.94-0.198,2.776l-5.947,5.129
		l1.255,1.259l5.132-5.948c0.836,0.622,2.016,0.56,2.776-0.199C50.185,5.683,50.185,4.33,49.354,3.497"/>
	<path fill="#682F8E" d="M37.942,35.939l0.271-0.472c0.355-0.616,0.659-1.265,0.925-1.926h-4.923
		c-1.913,3.088-5.323,5.151-9.214,5.151c-3.892,0-7.301-2.065-9.214-5.151h-4.927c0.267,0.665,0.569,1.312,0.926,1.926l0.271,0.472
		l-2.562,3.262c-0.087,0.112-0.075,0.335,0.028,0.436l3.691,3.696c0.096,0.097,0.324,0.11,0.435,0.027l3.265-2.569l0.471,0.271
		c1.144,0.663,2.376,1.171,3.659,1.512l0.525,0.139l0.495,4.127c0.017,0.143,0.182,0.288,0.326,0.288h5.226
		c0.145,0,0.308-0.146,0.327-0.287l0.494-4.124l0.525-0.143c1.284-0.342,2.514-0.849,3.657-1.51l0.472-0.271l3.262,2.564
		c0.108,0.084,0.339,0.069,0.436-0.027l3.695-3.695c0.102-0.104,0.114-0.321,0.023-0.438L37.942,35.939z"/>
</g>
</svg>
