<?xml version="1.0" encoding="utf-8"?>
<!-- Generator: Adobe Illustrator 16.0.0, SVG Export Plug-In . SVG Version: 6.00 Build 0)  -->
<!DOCTYPE svg PUBLIC "-//W3C//DTD SVG 1.1//EN" "http://www.w3.org/Graphics/SVG/1.1/DTD/svg11.dtd">
<svg version="1.1" id="Layer_1" xmlns="http://www.w3.org/2000/svg" xmlns:xlink="http://www.w3.org/1999/xlink" x="0px" y="0px"
	 width="99.954px" height="35.005px" viewBox="0 0 99.954 35.005" enable-background="new 0 0 99.954 35.005" xml:space="preserve">
<g>
	<g>
		<path fill="#68358F" d="M4.794,25.508c0,0-0.135,1.739-2.529,3.063c-0.467,0.411-1.145,1.041-1.459,2.425
			c0.045,0.64-0.146,3.28,3.253,3.985c0.953,0.054,2.336,0.194,3.462-1.831c0.076-0.22,1.063-3.218,2.625-3.604
			C9.386,29.58,5.799,29.844,4.794,25.508z"/>
	</g>
	<g>
		<path fill="#ED407D" d="M3.391,21.57c0,0,1.582,1.232,1.333,4.365c0.101,0.709,0.273,1.756,1.401,2.935
			c0.643,0.362,3.053,2.221,5.883-0.592c0.654-0.881,1.665-2.118,0.437-4.481c-0.161-0.213-2.41-3.057-1.791-4.798
			C10.205,19.748,8.183,23.354,3.391,21.57z"/>
	</g>
	<g>
		<path fill="#68358F" d="M6.858,7.614c0,0-0.387,2.71-4.269,4.542c-0.773,0.601-1.897,1.514-2.528,3.651
			c0.006,1.006-0.56,5.125,4.696,6.571c1.485,0.177,3.64,0.537,5.606-2.523c0.141-0.335,1.987-4.93,4.471-5.378
			C13.641,14.452,7.997,14.504,6.858,7.614z"/>
	</g>
	<g>
		<circle fill="#ED407D" cx="13.6" cy="7.384" r="7.384"/>
	</g>
</g>
<g>
	<g>
		<path fill="#68358F" d="M27.434,21.315c0-0.497-0.301-0.827-0.931-1.009c-0.602-0.179-1.291-0.36-2.028-0.555
			c-1.996-0.51-2.987-1.441-2.987-2.793c0.046-2.147,1.321-3.198,3.844-3.183c2.403,0,3.648,1.051,3.771,3.167H27.93
			c-0.437,0-0.735-0.208-0.932-0.6c-0.345-0.585-0.961-0.872-1.848-0.872c-1.08,0.016-1.622,0.42-1.666,1.202
			c0,0.645,0.646,1.112,1.982,1.411c0.767,0.18,1.576,0.405,2.433,0.707c1.14,0.389,1.682,1.229,1.622,2.523
			c-0.12,1.994-1.473,2.986-4.055,2.986c-2.703,0-4.07-1.126-4.13-3.347h2.027c0.076,1.08,0.766,1.621,2.103,1.621
			S27.449,22.155,27.434,21.315z"/>
		<path fill="#68358F" d="M32.86,18.941v5.208h-2.081v-4.793c0-2.326,1.171-3.48,3.498-3.48c1.047,0,1.848,0.231,2.434,0.694
			c0.586-0.448,1.387-0.664,2.435-0.664c2.326,0,3.48,1.155,3.465,3.481v4.79h-1.063c-0.678-0.045-1.016-0.369-1.016-1.015v-4.191
			c-0.047-0.848-0.509-1.262-1.419-1.262c-0.907,0-1.37,0.415-1.386,1.262v5.178h-2.063v-5.208
			c-0.047-0.848-0.509-1.264-1.417-1.264C33.337,17.677,32.874,18.093,32.86,18.941z"/>
		<path fill="#68358F" d="M51.146,20.112c0,2.804-1.248,4.222-3.714,4.222c-2.464,0-3.697-1.418-3.697-4.222
			c0-2.834,1.233-4.236,3.697-4.236C49.897,15.875,51.146,17.278,51.146,20.112z M45.815,20.112
			c0.015,1.587,0.554,2.387,1.601,2.387c1.049,0,1.572-0.832,1.588-2.447c0-1.589-0.523-2.374-1.572-2.374
			C46.354,17.677,45.815,18.494,45.815,20.112z"/>
		<path fill="#68358F" d="M59.478,20.112c0,2.804-1.247,4.222-3.711,4.222c-2.466,0-3.698-1.418-3.698-4.222
			c0-2.834,1.232-4.236,3.698-4.236C58.23,15.875,59.478,17.278,59.478,20.112z M54.148,20.112c0.016,1.587,0.556,2.387,1.603,2.387
			s1.57-0.832,1.586-2.447c0-1.589-0.523-2.374-1.57-2.374C54.688,17.677,54.148,18.494,54.148,20.112z"/>
		<path fill="#68358F" d="M62.728,17.462h-0.215v4.514c0,0.338,0.202,0.522,0.601,0.522h0.632v1.558
			c-0.664,0.061-1.386,0.061-2.157-0.016c-0.77-0.077-1.139-0.556-1.124-1.465v-8.903h1.063c0.54,0,0.986,0.493,0.986,1.032v1.294
			h1.232v0.447C63.745,17.03,63.298,17.462,62.728,17.462z"/>
		<path fill="#68358F" d="M68.397,17.709c-1.219,0-1.741,1.015-1.741,2.263v4.177h-2.049V13.672h1.032
			c0.678,0,1.017,0.354,1.017,1.032v2.433c1.049-1.201,2.326-1.54,3.851-1c1.141,0.417,1.68,1.509,1.618,3.281v4.73h-2.032v-4.177
			C70.093,18.602,69.568,17.709,68.397,17.709z"/>
		<path fill="#ED407F" d="M79.636,14.674v9.475h-2.049V13.672h1.063C79.189,13.672,79.636,14.134,79.636,14.674z"/>
		<path fill="#ED407F" d="M88.138,20.112c0,2.804-1.247,4.222-3.712,4.222c-2.464,0-3.697-1.418-3.697-4.222
			c0-2.834,1.233-4.236,3.697-4.236C86.891,15.875,88.138,17.278,88.138,20.112z M82.809,20.112
			c0.015,1.587,0.555,2.387,1.602,2.387c1.05,0,1.572-0.832,1.587-2.447c0-1.589-0.524-2.374-1.571-2.374
			C83.348,17.677,82.809,18.494,82.809,20.112z"/>
		<path fill="#ED407F" d="M99.954,15.999l-2.266,8.15h-2.125l-1.231-5.839l-1.296,5.839h-2.141l-2.233-8.15h2.079l1.295,5.654
			l1.171-5.654h2.172l1.108,5.654l1.109-4.898c0.155-0.51,0.493-0.756,1.002-0.756H99.954z"/>
	</g>
	<path fill="#ED407D" d="M75.866,18.051h-0.275v6.103H73.55v-8.327c-0.076-1.549,0.828-2.162,2.347-2.162
		c0.354,0,0.675,0.015,0.981,0.062v1.687h-0.537c-0.475,0-0.736,0.2-0.781,0.598v0.537h1.318v0.476
		C76.878,17.575,76.417,18.051,75.866,18.051"/>
</g>
</svg>
